<svg width="136" height="41" viewBox="0 0 136 41" fill="none" xmlns="http://www.w3.org/2000/svg">
<g clip-path="url(#clip0_72_11)">
<mask id="mask0_72_11" style="mask-type:luminance" maskUnits="userSpaceOnUse" x="0" y="0" width="44" height="41">
<path d="M0 0H43.6418V41H0V0Z" fill="white"/>
</mask>
<g mask="url(#mask0_72_11)">
<path d="M41.9315 12.5202C40.8304 10.0767 39.2598 7.88704 37.2532 6.00192C35.5689 4.41961 33.648 3.12261 31.5353 2.13892C31.4924 2.11441 31.4402 2.09866 31.3955 2.07415C31.0378 1.90962 30.6801 1.75384 30.313 1.61381C27.6246 0.540855 24.7628 0 21.8209 0C18.8716 0 16.0173 0.540855 13.3288 1.60681C10.7279 2.63951 8.39711 4.11505 6.38866 6.00192C4.38207 7.88704 2.81146 10.0767 1.71035 12.5202C0.575705 15.0459 0 17.7362 0 20.5C0 23.2708 0.575705 25.9523 1.71035 28.4781C2.81146 30.9215 4.38207 33.1112 6.38866 34.9963C8.39711 36.8832 10.7279 38.3587 13.3288 39.3914C16.0173 40.4574 18.879 41 21.8209 41C24.7628 41 27.6246 40.4574 30.313 39.3914C32.914 38.3587 35.2447 36.8832 37.2532 34.9963C39.2598 33.1112 40.8304 30.9215 41.9315 28.4781C43.0661 25.9523 43.6418 23.262 43.6418 20.5C43.6418 17.7362 43.0661 15.0459 41.9315 12.5202ZM21.8209 40.0391C10.3515 40.0391 1.02099 31.2734 1.02099 20.5C1.02099 9.7249 10.3515 0.959187 21.8209 0.959187C33.2903 0.959187 42.6208 9.7249 42.6208 20.5C42.6208 31.2734 33.2903 40.0391 21.8209 40.0391Z" fill="#402406"/>
</g>
<path d="M14.4802 19.5898C14.2529 19.5898 14.0703 19.4165 14.0703 19.203C14.0703 18.2438 13.5822 17.7852 13.0046 17.2444C12.3935 16.6703 11.7042 16.0139 11.7042 14.7431C11.7042 13.4724 12.3935 12.816 13.0046 12.2419C13.5729 11.701 14.0703 11.2407 14.0703 10.2815C14.0703 9.32232 13.5822 8.86373 13.0046 8.32287C12.5854 7.92905 12.1588 7.52647 11.9147 6.9121C11.8364 6.71431 11.9408 6.49377 12.1494 6.42025C12.36 6.34674 12.5947 6.44476 12.673 6.64079C12.8649 7.10113 13.2152 7.42845 13.5822 7.78027C14.1914 8.35438 14.8827 9.01076 14.8827 10.2815C14.8827 11.5523 14.1914 12.2086 13.5822 12.7827C13.0139 13.3236 12.5165 13.7839 12.5165 14.7431C12.5165 15.7023 13.0046 16.1609 13.5822 16.7035C14.1914 17.2759 14.8827 17.9323 14.8827 19.203C14.8827 19.4165 14.6982 19.5898 14.4802 19.5898Z" fill="#CD9028"/>
<path d="M31.5361 2.13892C31.493 2.11442 31.4405 2.09866 31.3955 2.07416C31.4217 2.08291 31.4405 2.08991 31.4667 2.09866C31.493 2.10741 31.5192 2.12317 31.5361 2.13892Z" fill="#CD9028"/>
<path d="M31.526 19.5898C31.3005 19.5898 31.1161 19.4165 31.1161 19.203C31.1161 18.2438 30.6279 17.7852 30.0522 17.2444C29.4411 16.6702 28.7518 16.0139 28.7518 14.7431C28.7518 13.4724 29.4411 12.816 30.0522 12.2419C30.6186 11.701 31.1161 11.2407 31.1161 10.2815C31.1161 9.32232 30.6279 8.86373 30.0522 8.32287C29.4411 7.74876 28.7518 7.09238 28.7518 5.82163C28.7518 5.75512 28.7518 5.69036 28.7592 5.61684C28.7685 5.4033 28.9698 5.24752 29.1877 5.25627C29.415 5.26327 29.5809 5.45231 29.5715 5.6571C29.5715 5.71486 29.5622 5.76387 29.5622 5.81288C29.5622 6.77207 30.0522 7.23241 30.6279 7.77326C31.239 8.34737 31.9284 9.002 31.9284 10.2745C31.9284 11.5452 31.239 12.2016 30.6279 12.774C30.0597 13.3166 29.5622 13.7752 29.5622 14.7344C29.5622 15.6936 30.0522 16.1539 30.6279 16.6948C31.239 17.2689 31.9284 17.9252 31.9284 19.196C31.9377 19.4165 31.7533 19.5898 31.526 19.5898Z" fill="#CD9028"/>
<path d="M38.3524 13.9397C37.4451 11.9303 36.1521 10.1257 34.5032 8.57667C32.8543 7.02587 30.9335 5.81288 28.7946 4.96047C26.5775 4.08355 24.2299 3.63196 21.8116 3.63196C19.3951 3.63196 17.0383 4.07479 14.8286 4.96047C12.6916 5.81288 10.7707 7.02587 9.12185 8.57667C7.47112 10.1257 6.17997 11.9303 5.27263 13.9397C4.33734 16.0226 3.85852 18.2281 3.85852 20.5C3.85852 22.7789 4.32989 24.9844 5.27263 27.0585C6.17997 29.0679 7.47112 30.8725 9.12185 32.4216C10.7707 33.9724 12.6916 35.1854 14.8286 36.0378C17.0457 36.9165 19.3951 37.3663 21.8116 37.3663C24.2299 37.3663 26.5868 36.9235 28.7946 36.0378C30.9335 35.1854 32.8543 33.9724 34.5032 32.4216C36.1521 30.8725 37.4451 29.0679 38.3524 27.0585C39.2859 24.9756 39.7665 22.7702 39.7665 20.5C39.7665 18.2193 39.2952 16.0139 38.3524 13.9397ZM15.7639 32.1188C15.8682 30.5435 16.5837 28.8474 17.7891 27.3456C18.9927 25.8455 20.5205 24.7306 22.1097 24.1967C22.7469 23.9849 23.358 23.8782 23.9151 23.8782C24.5355 23.8782 25.0944 24.0094 25.5826 24.2545C25.5397 24.377 25.495 24.517 25.4354 24.6973C25.3031 25.0999 25.1205 25.6653 24.9025 26.3706C24.474 27.7482 23.2872 28.7809 21.7855 29.0679C20.0845 29.397 18.6871 30.4945 18.0499 32.012L16.7588 35.0873C16.6805 35.0541 16.6098 35.0138 16.5315 34.9806C15.9632 34.2752 15.6931 33.2827 15.7639 32.1188ZM20.949 35.784C20.5558 35.9153 20.1795 36.0063 19.8125 36.0553C19.0803 35.931 18.3741 35.735 17.7015 35.4812L19.0095 32.3638C19.5162 31.1508 20.6341 30.2652 22.0035 30.0114C23.8722 29.6508 25.3646 28.3625 25.8881 26.649C26.1508 25.8053 26.3241 25.2627 26.4377 24.9196C27.0749 25.625 27.3805 26.649 27.3022 27.8794C27.1979 29.453 26.4825 31.1508 25.277 32.6509C24.0641 34.1352 22.5364 35.2519 20.949 35.784ZM26.08 33.2092C27.3991 31.5604 28.1928 29.684 28.3065 27.9197C28.4276 26.0993 27.809 24.6151 26.5775 23.7294H32.914C32.9494 23.7294 32.9754 23.7539 32.9754 23.7871V25.723C32.9754 31.3154 28.2971 35.8995 22.4227 36.2023C23.7846 35.5302 25.0497 34.4975 26.08 33.2092ZM16.9768 26.7715C15.6596 28.4203 14.864 30.2984 14.7504 32.061C14.7075 32.7576 14.769 33.3983 14.9255 33.9794C12.3246 32.061 10.6477 29.0767 10.6477 25.73V23.7959C10.6477 23.7626 10.6757 23.7381 10.7092 23.7381H20.703C19.3243 24.4033 18.0332 25.4517 16.9768 26.7715ZM29.3442 34.7425C29.728 34.4642 30.0951 34.1527 30.4453 33.8236C32.7481 31.6602 34.0151 28.7896 34.0151 25.73V23.7959C34.0151 23.2375 33.5251 22.7789 32.9326 22.7789H10.7185C10.1242 22.7789 9.63607 23.2375 9.63607 23.7959V25.73C9.63607 28.7896 10.9011 31.6672 13.2058 33.8236C13.5542 34.1527 13.9213 34.4555 14.3051 34.7425C8.72873 32.1345 4.89628 26.7312 4.89628 20.5C4.89628 12.1596 11.7749 5.29653 20.4776 4.64891C20.7217 5.28778 21.1222 5.73062 21.506 6.16645C22.0911 6.82108 22.5885 7.38819 22.5885 8.57667C22.5885 9.76516 22.0836 10.3305 21.506 10.9869C20.9136 11.659 20.2317 12.4222 20.2317 13.8907C20.2317 15.3575 20.9136 16.1206 21.506 16.7928C22.0911 17.4492 22.5885 18.0145 22.5885 19.203C22.5885 19.4165 22.773 19.5898 22.9984 19.5898C23.2257 19.5898 23.4102 19.4165 23.4102 19.203C23.4102 17.7362 22.7283 16.9731 22.1358 16.3009C21.5508 15.6446 21.0533 15.0792 21.0533 13.8907C21.0533 12.7005 21.5582 12.1351 22.1358 11.4787C22.7283 10.8066 23.4102 10.0435 23.4102 8.57667C23.4102 7.10814 22.7283 6.34674 22.1358 5.67286C21.8377 5.33679 21.5414 5.00948 21.3402 4.5999C21.4986 4.59115 21.6644 4.59115 21.8209 4.59115C31.1514 4.59115 38.7455 11.7255 38.7455 20.4912C38.7455 26.7312 34.9131 32.1345 29.3442 34.7425Z" fill="#CD9028"/>
<path d="M52.3646 19.4516H54.1774C56.9852 19.4516 58.431 18.0338 58.431 15.5921V8.89877H55.8617V15.4118C55.8617 16.5863 55.381 17.2059 54.0172 17.2059H52.3646V19.4516Z" fill="#402406"/>
<path d="M59.8915 19.4516H62.6192L63.3737 17.6277H67.834L68.5886 19.4516H71.3162L66.8559 8.89877H64.3519L59.8915 19.4516ZM64.0314 15.7426L65.6039 11.8831L67.1931 15.7426H64.0314Z" fill="#402406"/>
<path d="M75.9236 19.4516H78.4257L82.7426 8.89877H80.015L77.1905 15.9982L75.8416 12.6515L74.3492 8.89877H71.6067L75.9236 19.4516Z" fill="#402406"/>
<path d="M83.033 19.4516H85.7606L86.5152 17.6277H90.9755L91.7301 19.4516H94.4577L89.9974 8.89877H87.4933L83.033 19.4516ZM87.1729 15.7426L88.7454 11.8831L90.3346 15.7426H87.1729Z" fill="#402406"/>
<path d="M98.9685 19.4516H100.781C103.589 19.4516 105.035 18.0338 105.035 15.5921V8.89877H102.466V15.4118C102.466 16.5863 101.985 17.2059 100.621 17.2059H98.9685V19.4516Z" fill="#402406"/>
<path d="M113.026 19.6634C116.541 19.6634 119.029 17.4019 119.029 14.1743C119.029 10.9484 116.541 8.68698 113.026 8.68698C109.512 8.68698 107.039 10.9484 107.039 14.1743C107.039 17.4019 109.512 19.6634 113.026 19.6634ZM109.64 14.1743C109.64 12.2752 111.036 10.9642 113.026 10.9642C115.032 10.9642 116.413 12.2752 116.413 14.1743C116.413 16.0752 115.032 17.3862 113.026 17.3862C111.036 17.3862 109.64 16.0752 109.64 14.1743ZM110.106 7.88707H112.143L113.026 6.93838L113.909 7.88707H115.964L113.972 5.68689H112.096L110.106 7.88707Z" fill="#402406"/>
<path d="M125.656 19.6634C128.577 19.6634 130.359 17.9445 130.359 15.109V8.89877H127.806V14.9445C127.806 16.5565 127.085 17.3862 125.656 17.3862C124.227 17.3862 123.506 16.5565 123.506 14.9445V8.89877H120.954V15.109C120.954 17.9445 122.735 19.6634 125.656 19.6634Z" fill="#402406"/>
<path d="M50.985 31.3123C51.3968 31.3123 51.7787 31.2195 52.1327 31.0323C52.4848 30.8467 52.7829 30.5982 53.027 30.2901L53.8021 30.9902C53.463 31.3736 53.0494 31.6869 52.5575 31.9284C52.0694 32.1665 51.5458 32.2855 50.985 32.2855C50.4671 32.2855 49.9808 32.1892 49.5243 31.9984C49.0716 31.8024 48.6766 31.5399 48.3394 31.2073C48.0059 30.8765 47.7395 30.4897 47.542 30.0451C47.3482 29.597 47.2513 29.1261 47.2513 28.6308C47.2513 28.1267 47.3482 27.6558 47.542 27.2165C47.7395 26.7737 48.0059 26.3868 48.3394 26.0543C48.6766 25.7235 49.0716 25.4627 49.5243 25.2701C49.9808 25.0741 50.4671 24.9761 50.985 24.9761C51.462 24.9761 51.911 25.0653 52.3339 25.2421C52.7606 25.4207 53.1407 25.6517 53.4742 25.9353L52.8109 26.7334C52.5761 26.5006 52.3004 26.3098 51.9837 26.1593C51.6706 26.0053 51.3371 25.9283 50.985 25.9283C50.6161 25.9283 50.2733 26.0018 49.9566 26.1453C49.6436 26.2906 49.3678 26.4866 49.1293 26.7334C48.8946 26.982 48.7083 27.269 48.5704 27.5946C48.4307 27.9166 48.3617 28.2632 48.3617 28.6308C48.3617 29.0001 48.4307 29.3484 48.5704 29.674C48.7083 29.9961 48.8946 30.2814 49.1293 30.5282C49.3678 30.7715 49.6436 30.9622 49.9566 31.1023C50.2733 31.2423 50.6161 31.3123 50.985 31.3123Z" fill="#402406"/>
<path d="M55.4809 32.1875H54.2661L57.4185 25.0671H58.6482L61.8006 32.1875H60.5933L59.6021 29.9541H56.4646L55.4809 32.1875ZM56.8968 28.9949H59.1699L58.0371 26.4184L56.8968 28.9949Z" fill="#402406"/>
<path d="M67.6826 25.0671V26.0053H63.6881V27.9447H67.31V28.9249H63.6881V32.1875H62.5702V25.0671H67.6826Z" fill="#402406"/>
<path d="M72.9797 25.0671V26.0053H69.4621V27.9447H72.5922V28.9249H69.4621V31.2143H72.9797V32.1875H68.3443V25.0671H72.9797ZM71.4072 22.8057L70.8036 24.591H69.9615L70.2148 22.8057H71.4072Z" fill="#402406"/>
<path d="M79.2748 30.1851C79.2748 30.4897 79.2096 30.7715 79.0811 31.0323C78.9507 31.2896 78.7625 31.5136 78.5147 31.7044C78.0228 32.093 77.3912 32.2855 76.6217 32.2855C76.0255 32.2855 75.4834 32.1718 74.9971 31.9425C74.5146 31.7097 74.1587 31.3999 73.9314 31.0113L74.8779 30.5492C75.0213 30.7925 75.2468 30.9798 75.556 31.1093C75.869 31.2406 76.223 31.3053 76.6217 31.3053C77.6539 31.3053 78.1719 30.9325 78.1719 30.1851C78.1719 30.0451 78.1439 29.9261 78.0899 29.828C78.0396 29.7265 77.9595 29.632 77.8514 29.548C77.598 29.3485 77.1378 29.1664 76.4727 29.0019C76.074 28.9091 75.7368 28.8058 75.4592 28.6938C75.1797 28.5783 74.9487 28.4418 74.7661 28.2877C74.3133 27.9482 74.0879 27.4948 74.0879 26.9295C74.0879 26.6494 74.1438 26.3886 74.2593 26.1453C74.3785 25.8985 74.5462 25.6867 74.7661 25.5082C74.9841 25.3262 75.2393 25.1914 75.5337 25.1021C75.8318 25.0094 76.1597 24.9621 76.5174 24.9621C77.0391 24.9621 77.5179 25.0584 77.9557 25.2492C78.3917 25.4364 78.7252 25.7007 78.9544 26.0403L78.0899 26.5444C77.8812 26.3064 77.639 26.1418 77.367 26.0473C77.0987 25.9493 76.8155 25.9003 76.5174 25.9003C76.3032 25.9003 76.1075 25.9335 75.9287 25.9983C75.7498 26.0648 75.6008 26.1436 75.4815 26.2363C75.3809 26.3204 75.3064 26.4219 75.2579 26.5374C75.2132 26.6547 75.1909 26.7807 75.1909 26.9155C75.1909 26.9995 75.202 27.0888 75.2281 27.1815C75.2579 27.2708 75.325 27.3636 75.4293 27.4616C75.5374 27.5596 75.6976 27.6541 75.9063 27.7416C76.115 27.8309 76.3944 27.9202 76.7484 28.0077C77.1807 28.111 77.5403 28.2212 77.8291 28.3368C78.1216 28.454 78.3675 28.5923 78.5669 28.7498C79.0382 29.1139 79.2748 29.5935 79.2748 30.1851Z" fill="#402406"/>
<path d="M87.8427 25.0671V26.0053H84.3251V27.9447H87.4552V28.9249H84.3251V31.2143H87.8427V32.1875H83.2072V25.0671H87.8427Z" fill="#402406"/>
<path d="M94.1378 30.1851C94.1378 30.4897 94.0726 30.7715 93.9441 31.0323C93.8136 31.2896 93.6255 31.5136 93.3777 31.7044C92.8858 32.093 92.2542 32.2855 91.4847 32.2855C90.8885 32.2855 90.3464 32.1718 89.8601 31.9425C89.3775 31.7097 89.0217 31.3999 88.7944 31.0113L89.7408 30.5492C89.8843 30.7925 90.1097 30.9798 90.419 31.1093C90.732 31.2406 91.086 31.3053 91.4847 31.3053C92.5169 31.3053 93.0348 30.9325 93.0348 30.1851C93.0348 30.0451 93.0069 29.9261 92.9529 29.828C92.9026 29.7265 92.8224 29.632 92.7144 29.548C92.461 29.3485 92.0008 29.1664 91.3357 29.0019C90.937 28.9091 90.5997 28.8058 90.3221 28.6938C90.0427 28.5783 89.8116 28.4418 89.6291 28.2877C89.1763 27.9482 88.9509 27.4948 88.9509 26.9295C88.9509 26.6494 89.0068 26.3886 89.1223 26.1453C89.2415 25.8985 89.4092 25.6867 89.6291 25.5082C89.847 25.3262 90.1023 25.1914 90.3967 25.1021C90.6948 25.0094 91.0227 24.9621 91.3804 24.9621C91.9021 24.9621 92.3809 25.0584 92.8187 25.2492C93.2547 25.4364 93.5882 25.7007 93.8174 26.0403L92.9529 26.5444C92.7442 26.3064 92.502 26.1418 92.23 26.0473C91.9617 25.9493 91.6785 25.9003 91.3804 25.9003C91.1661 25.9003 90.9705 25.9335 90.7916 25.9983C90.6128 26.0648 90.4637 26.1436 90.3445 26.2363C90.2439 26.3204 90.1694 26.4219 90.1209 26.5374C90.0762 26.6547 90.0538 26.7807 90.0538 26.9155C90.0538 26.9995 90.065 27.0888 90.0911 27.1815C90.1209 27.2708 90.188 27.3636 90.2923 27.4616C90.4004 27.5596 90.5606 27.6541 90.7693 27.7416C90.978 27.8309 91.2574 27.9202 91.6114 28.0077C92.0437 28.111 92.4032 28.2212 92.692 28.3368C92.9845 28.454 93.2305 28.5923 93.4298 28.7498C93.9012 29.1139 94.1378 29.5935 94.1378 30.1851Z" fill="#402406"/>
<path d="M98.3424 25.0671C98.6405 25.0671 98.9199 25.1214 99.1845 25.2281C99.4472 25.3367 99.6764 25.4802 99.8701 25.6622C100.068 25.8408 100.224 26.0526 100.34 26.2993C100.453 26.5426 100.511 26.8034 100.511 27.0835C100.511 27.3636 100.453 27.6279 100.34 27.8747C100.224 28.1232 100.068 28.3367 99.8701 28.5188C99.6764 28.7008 99.4472 28.8443 99.1845 28.9459C98.9199 29.0491 98.6405 29.0999 98.3424 29.0999L96.3749 29.1139V32.1875H95.257V25.0671H98.3424ZM98.3424 28.1267C98.4914 28.1267 98.6293 28.0987 98.7597 28.0427C98.8938 27.9867 99.0094 27.9132 99.11 27.8186C99.2087 27.7259 99.2851 27.6139 99.341 27.4826C99.4006 27.3531 99.4304 27.213 99.4304 27.0625C99.4304 26.919 99.4006 26.7824 99.341 26.6564C99.2851 26.5269 99.2087 26.4114 99.11 26.3134C99.0094 26.2153 98.8938 26.1383 98.7597 26.0823C98.6293 26.0263 98.4914 25.9983 98.3424 25.9983H96.3749V28.1267H98.3424Z" fill="#402406"/>
<path d="M106.138 25.0671V26.0053H102.62V27.9447H105.75V28.9249H102.62V31.2143H106.138V32.1875H101.503V25.0671H106.138Z" fill="#402406"/>
<path d="M110.95 31.3123C111.362 31.3123 111.744 31.2195 112.098 31.0323C112.45 30.8467 112.748 30.5982 112.992 30.2901L113.767 30.9902C113.428 31.3736 113.014 31.6869 112.523 31.9284C112.034 32.1665 111.511 32.2855 110.95 32.2855C110.432 32.2855 109.946 32.1892 109.489 31.9984C109.037 31.8024 108.642 31.5399 108.304 31.2073C107.971 30.8765 107.705 30.4897 107.507 30.0451C107.313 29.597 107.216 29.1261 107.216 28.6308C107.216 28.1267 107.313 27.6558 107.507 27.2165C107.705 26.7737 107.971 26.3868 108.304 26.0543C108.642 25.7235 109.037 25.4627 109.489 25.2701C109.946 25.0741 110.432 24.9761 110.95 24.9761C111.427 24.9761 111.876 25.0653 112.299 25.2421C112.726 25.4207 113.106 25.6517 113.439 25.9353L112.776 26.7334C112.541 26.5006 112.266 26.3098 111.949 26.1593C111.636 26.0053 111.302 25.9283 110.95 25.9283C110.581 25.9283 110.238 26.0018 109.922 26.1453C109.609 26.2906 109.333 26.4866 109.094 26.7334C108.86 26.982 108.673 27.269 108.536 27.5946C108.396 27.9166 108.327 28.2632 108.327 28.6308C108.327 29.0001 108.396 29.3484 108.536 29.674C108.673 29.9961 108.86 30.2814 109.094 30.5282C109.333 30.7715 109.609 30.9622 109.922 31.1023C110.238 31.2423 110.581 31.3123 110.95 31.3123Z" fill="#402406"/>
<path d="M116.765 25.9283V31.3263H117.317V32.1875H115.088V31.3263H115.655V25.9283H115.088V25.0671H117.317V25.9283H116.765Z" fill="#402406"/>
<path d="M119.648 32.1875H118.433L121.586 25.0671H122.816L125.968 32.1875H124.761L123.769 29.9541H120.632L119.648 32.1875ZM121.064 28.9949H123.337L122.204 26.4184L121.064 28.9949Z" fill="#402406"/>
<path d="M128.794 25.9283V31.3263H129.346V32.1875H127.118V31.3263H127.684V25.9283H127.118V25.0671H129.346V25.9283H128.794Z" fill="#402406"/>
<path d="M136 30.1851C136 30.4897 135.935 30.7715 135.806 31.0323C135.676 31.2896 135.488 31.5136 135.24 31.7044C134.748 32.093 134.116 32.2855 133.347 32.2855C132.751 32.2855 132.209 32.1718 131.722 31.9425C131.24 31.7097 130.884 31.3999 130.657 31.0113L131.603 30.5492C131.746 30.7925 131.972 30.9798 132.281 31.1093C132.594 31.2406 132.948 31.3053 133.347 31.3053C134.379 31.3053 134.897 30.9325 134.897 30.1851C134.897 30.0451 134.869 29.9261 134.815 29.828C134.765 29.7265 134.685 29.632 134.577 29.548C134.323 29.3485 133.863 29.1664 133.198 29.0019C132.799 28.9091 132.462 28.8058 132.184 28.6938C131.905 28.5783 131.674 28.4418 131.491 28.2877C131.038 27.9482 130.813 27.4948 130.813 26.9295C130.813 26.6494 130.869 26.3886 130.984 26.1453C131.104 25.8985 131.271 25.6867 131.491 25.5082C131.709 25.3262 131.964 25.1914 132.259 25.1021C132.557 25.0094 132.885 24.9621 133.243 24.9621C133.764 24.9621 134.243 25.0584 134.681 25.2492C135.117 25.4364 135.45 25.7007 135.68 26.0403L134.815 26.5444C134.606 26.3064 134.364 26.1418 134.092 26.0473C133.824 25.9493 133.541 25.9003 133.243 25.9003C133.028 25.9003 132.833 25.9335 132.654 25.9983C132.475 26.0648 132.326 26.1436 132.207 26.2363C132.106 26.3204 132.032 26.4219 131.983 26.5374C131.938 26.6547 131.916 26.7807 131.916 26.9155C131.916 26.9995 131.927 27.0888 131.953 27.1815C131.983 27.2708 132.05 27.3636 132.155 27.4616C132.263 27.5596 132.423 27.6541 132.631 27.7416C132.84 27.8309 133.12 27.9202 133.474 28.0077C133.906 28.111 134.265 28.2212 134.554 28.3368C134.847 28.454 135.093 28.5923 135.292 28.7498C135.763 29.1139 136 29.5935 136 30.1851Z" fill="#402406"/>
</g>
<defs>
<clipPath id="clip0_72_11">
<rect width="136" height="41" fill="white"/>
</clipPath>
</defs>
</svg>
